<svg xmlns="http://www.w3.org/2000/svg" width="170" height="152" viewBox="0 0 170 152">
    <g fill="none" fill-rule="evenodd">
        <g fill-rule="nonzero">
            <g>
                <path fill="#FFF" d="M167.258 128.243H153.69V22.017c-.002-.66-.244-1.298-.681-1.793-.01-.013-.013-.032-.022-.043L135.679.911c-.52-.58-1.26-.911-2.037-.911H36.36c-.777 0-1.518.331-2.037.91L17.016 20.173c-.018.02-.016.035-.032.054-.43.493-.67 1.127-.672 1.782v106.234H2.742c-1.514 0-2.742 1.23-2.742 2.747 0 1.516 1.228 2.746 2.742 2.746h61.297c5.843 6.55 12.328 12.496 19.357 17.749.955.687 2.242.687 3.197 0 7.077-5.234 13.598-11.182 19.462-17.75h61.203c1.514 0 2.742-1.229 2.742-2.745 0-1.517-1.228-2.747-2.742-2.747zm-22.467-108.98h-39.979L97.08 5.493h35.34l12.371 13.77zm-75.257 5.493h30.932V47.51l-14.202-7.393c-.792-.413-1.736-.413-2.528 0l-14.2 7.393-.002-22.755zM90.788 5.493l7.732 13.77H71.481l7.733-13.77h11.574zm-53.208 0h35.341l-7.732 13.77H25.21L37.58 5.493zM85 145.815c-6.58-5.14-31.29-25.705-31.29-45.082 0-17.308 14.01-31.338 31.29-31.338s31.29 14.03 31.29 31.338c0 19.587-24.686 39.983-31.29 45.082zm36.773-45.082c0-20.341-16.464-36.831-36.773-36.831-20.31 0-36.773 16.49-36.773 36.831 0 9.678 5.037 19.289 11.298 27.51H21.796V24.756H64.05V52.04c0 .96.5 1.85 1.319 2.347.818.498 1.837.532 2.687.09L85 45.656l16.944 8.82c.85.443 1.869.41 2.687-.089.82-.498 1.32-1.388 1.319-2.347V24.756h42.256v103.487h-37.642c6.219-8.187 11.21-17.778 11.21-27.51z" transform="translate(-1238 -133) translate(1238 133)"/>
                <path fill="#66C1FF" d="M85.5 85C76.94 85 70 91.94 70 100.5c0 8.56 6.94 15.5 15.5 15.5 8.56 0 15.5-6.94 15.5-15.5-.01-8.557-6.943-15.49-15.5-15.5zm0 25.595c-5.577 0-10.098-4.521-10.098-10.098 0-5.577 4.521-10.098 10.098-10.098 5.577 0 10.098 4.521 10.098 10.098-.006 5.574-4.524 10.092-10.098 10.098z" transform="translate(-1238 -133) translate(1238 133)"/>
            </g>
        </g>
    </g>
</svg>
